<?xml version="1.0" encoding="utf-8"?>
<!-- Generator: Adobe Illustrator 16.0.0, SVG Export Plug-In . SVG Version: 6.00 Build 0)  -->
<!DOCTYPE svg PUBLIC "-//W3C//DTD SVG 1.1//EN" "http://www.w3.org/Graphics/SVG/1.1/DTD/svg11.dtd">
<svg version="1.1" id="Layer_1" xmlns="http://www.w3.org/2000/svg" xmlns:xlink="http://www.w3.org/1999/xlink" x="0px" y="0px"
	 width="40px" height="40px" viewBox="0 0 40 40" style="enable-background:new 0 0 40 40;" xml:space="preserve">
<style type="text/css">
<![CDATA[
	.st0{fill:#B86F34;}
]]>
</style>
<path class="st0" d="M20,0C9,0,0,9,0,20c0,11,9,20,20,20c11,0,20-9,20-20C40,9,31,0,20,0z M27.9,29.3h-0.5H11.6v-1.1H13
	c1.4,0,1.4-1.4,1.4-1.4V13.2c0-1.2-2.8-1.4-2.8-1.4v-0.7h12.8c1.1,0,1.4-0.4,1.4-0.4h1.6l-0.2,5.3h-1.1c0,0-0.4-3.9-1.8-3.9h-7.1
	l0,0v7.3h4.3c1.1,0,1.4-2.9,1.4-2.9H24c0,0-0.2,2.5-0.2,3.4c0,0.9,0.2,3.4,0.2,3.4h-1c0,0-0.3-2.8-1.5-2.8h-4.3v6.2
	c0,0,0,1.4,1.4,1.4h5c2.9,0,3.9-4.3,3.9-4.3h0.9L27.9,29.3z"/>
</svg>
