<?xml version="1.0" encoding="utf-8"?>
<!-- Generator: Adobe Illustrator 16.0.0, SVG Export Plug-In . SVG Version: 6.00 Build 0)  -->
<!DOCTYPE svg PUBLIC "-//W3C//DTD SVG 1.1//EN" "http://www.w3.org/Graphics/SVG/1.1/DTD/svg11.dtd">
<svg version="1.1" id="Layer_1" xmlns="http://www.w3.org/2000/svg" xmlns:xlink="http://www.w3.org/1999/xlink" x="0px" y="0px"
	 width="40px" height="40px" viewBox="0 0 40 40" style="enable-background:new 0 0 40 40;" xml:space="preserve">
<style type="text/css">
<![CDATA[
	.st0{fill:#37393B;}
]]>
</style>
<g>
	<path class="st0" d="M40,38L28.5,26.4c2.3-2.8,3.7-6.4,3.7-10.3c0-8.9-7.2-16.1-16.1-16.1C7.2,0.1,0,7.3,0,16.1
		C0,25,7.2,32.2,16.1,32.2c3.9,0,7.5-1.4,10.3-3.7l11.5,11.5L40,38z M1.7,16.1c0-7.9,6.5-14.4,14.4-14.4c7.9,0,14.4,6.5,14.4,14.4
		c0,7.9-6.5,14.4-14.4,14.4C8.2,30.5,1.7,24.1,1.7,16.1z"/>
	<rect x="7.9" y="15.4" class="st0" width="16.1" height="1.7"/>
	<rect x="15.1" y="8.1" class="st0" width="1.7" height="16.1"/>
</g>
</svg>
